<?xml version="1.0" encoding="UTF-8"?>
<!DOCTYPE svg PUBLIC "-//W3C//DTD SVG 1.1//EN" "http://www.w3.org/Graphics/SVG/1.1/DTD/svg11.dtd">
<!-- Creator: CorelDRAW -->
<svg xmlns="http://www.w3.org/2000/svg" xml:space="preserve" width="215.9mm" height="279.4mm" style="shape-rendering:geometricPrecision; text-rendering:geometricPrecision; image-rendering:optimizeQuality; fill-rule:evenodd; clip-rule:evenodd"
viewBox="0 0 215.9 279.4">
 <defs>
  <style type="text/css">
   <![CDATA[
    .str3 {stroke:#004A91;stroke-width:0.1764}
    .str0 {stroke:#35B1BD;stroke-width:0.7056}
    .str2 {stroke:white;stroke-width:0.7056}
    .str1 {stroke:white;stroke-width:0.7056}
    .fil0 {fill:#004A91}
    .fil1 {fill:#35B1BD}
    .fil2 {fill:#35B1BD;fill-rule:nonzero}
   ]]>
  </style>
 </defs>
 <g id="Layer_x0020_1">
  <metadata id="CorelCorpID_0Corel-Layer"/>
  <g id="_201659432">
   <path id="_202000608" class="fil0 str0" d="M71.0011 57.4683l32.0228 -40.4085 44.822 36.6325 8.8272 -6.8653 46.4401 41.242c-11.3064,43.1547 -17.9963,86.3093 -21.8223,129.464l-171.001 -0.049c-1.7855,-1.9128 -1.7772,-3.6834 0,-5.2963l81.8469 -0.7846c-3.0997,-52.4958 -9.6189,-103.965 -21.136,-153.935z"/>
   <polygon id="_201998520" class="fil1 str1" points="151.566,145.255 151.125,157.122 175.939,165.116 177.214,154.474 "/>
   <polygon id="_201998256" class="fil1 str1" points="129.852,188.186 145.987,186.372 145.3,211.97 129.951,212.608 "/>
   <polygon id="_201998376" class="fil1 str1" points="147.25,157.515 146.956,176.689 130.234,179.435 130.038,162.124 "/>
   <polygon id="_201998352" class="fil1 str1" points="150.34,176.542 150.046,188.606 173.045,191.891 174.075,180.612 "/>
   <polygon id="_201998664" class="fil1 str1" points="129.743,135.349 148.231,127.503 147.937,145.892 130.038,151.875 "/>
   <polygon id="_201998616" class="fil1 str1" points="149.506,95.7249 148.82,115.292 129.645,124.462 128.959,107.691 "/>
   <polygon id="_201998328" class="fil1 str1" points="152.498,114.213 152.007,126.424 179.47,139.321 180.646,129.317 "/>
   <polygon id="_201997680" class="fil1 str1" points="153.871,82.3371 153.282,95.1855 183.197,113.968 184.864,104.111 "/>
   <polygon id="_201997584" class="fil1 str1" points="127.39,73.6572 152.007,54.0904 150.34,83.1218 128.567,97.2942 "/>
   <path id="_201112176" class="fil1 str2" d="M99.4388 213.33l18.2917 -0.2452 -0.6866 -22.4601 -13.7801 1.4222 -0.8827 -9.8079 13.9763 -3.0405 -0.7846 -19.0273 -14.7609 5.3453 -0.9808 -10.1021 15.1532 -5.8848 -0.8827 -17.8013 -15.8398 7.9934 -1.275 -10.2492 16.2321 -9.4646 -1.177 -17.9485 -16.8696 11.8185 -1.4712 -9.4646 17.7523 -14.0743 -1.6673 -17.1639 -18.3408 16.5264 -1.4712 -9.4647 19.0274 -18.2427 -3.4818 -35.9949 -26.9718 34.4259c8.7451,53.6167 15.6543,104.201 20.8909,152.905z"/>
   <path id="_201660152" class="fil2 str3" d="M46.5753 66.2543l14.0373 -2.8265 1.1012 4.0365 -4.6697 0.9403c0.6926,0.7155 1.5299,1.3763 2.5111,1.9825 1.1956,0.7341 2.0763,1.0441 2.6423,0.9301 0.3396,-0.0683 0.5645,-0.3019 0.6749,-0.7002 0.11,-0.3984 0.0591,-0.9867 -0.1532,-1.7649l-1.7842 -6.5409 4.3473 0.1762 1.645 6.0305c0.4951,1.8155 0.5425,3.3024 0.1419,4.4604 -0.4697,1.3429 -1.5253,2.1797 -3.1666,2.5101 -1.0754,0.2166 -2.2455,0.0504 -3.5098,-0.4987 -0.3129,-0.1252 -1.4141,-0.7328 -3.3037,-1.8229 -1.1471,0.8294 -2.3132,1.8081 -3.4984,2.9361 -1.3239,1.2755 -2.4287,2.5154 -3.3143,3.7198l-3.8616 -2.9931c1.4573,-1.6615 3.1989,-3.3035 5.2246,-4.9255 1.6348,-1.304 3.2382,-2.4306 4.8103,-3.3798l-8.7732 1.7666 -1.1012 -4.0366zm4.3929 14.886l18.8485 -3.2036 2.2169 9.6286 -3.8749 1.7023 -1.5173 -6.5904 -2.9655 0.5039 1.3989 6.0761 -4.3375 -0.3065 -1.1677 -5.0716 -3.536 0.601 1.636 7.105 -4.3717 -0.3263 -2.3297 -10.1185zm1.144 15.3125c1.127,-0.9184 2.1948,-1.65 3.2031,-2.1948 1.5931,-0.855 3.3052,-1.4239 5.1363,-1.7067 3.6236,-0.5597 6.6581,-0.2671 9.1026,0.8779 2.881,1.3482 4.6935,3.8003 5.4375,7.3564l0.5349 2.5565 -3.9089 1.6439 -0.6377 -3.0479c-0.3155,-1.5077 -1.1027,-2.824 -2.3619,-3.949 -1.2592,-1.1251 -2.48,-1.5963 -3.6626,-1.4136l0.9566 4.572 4.1482 -0.6407 0.8485 4.0558 -14.1903 2.1916 -0.8484 -4.0558 5.9222 -0.9145 -1.0645 -5.0883c-0.8202,0.1266 -1.7579,0.4912 -2.8131,1.094 -0.9164,0.5138 -1.8106,1.134 -2.6823,1.8607l-3.1202 -3.1975zm4.9202 12.0987l18.9673 -2.6365 0.766 4.068 -14.8066 2.0581 1.1514 6.1142 -4.3512 -0.4324 -1.7269 -9.1714zm3.2362 18.1265l19.0628 -2.0662 1.4298 9.738 -4.0037 1.4659 -0.9787 -6.6653 -2.9992 0.325 0.9023 6.1451 -4.302 -0.5657 -0.7531 -5.1292 -3.5762 0.3876 1.055 7.1857 -4.3344 -0.5874 -1.5026 -10.2335zm6.0226 12.0848l0.6767 4.6088c0.0994,0.6772 0.3607,0.9929 0.7837,0.9471 0.4614,-0.05 0.9885,-0.4512 1.5812,-1.2034l3.7305 -3.5259c0.5858,-0.5334 1.233,-0.9812 1.9415,-1.3432 0.7087,-0.3621 1.409,-0.5806 2.1011,-0.6556 1.0575,-0.1146 1.988,0.1034 2.7916,0.6539 0.8925,0.625 1.5175,1.6228 1.8751,2.9938l0.7531 5.1292 -4.0037 1.466 -0.6003 -4.0885c-0.1164,-0.7928 -0.4342,-1.1613 -0.9533,-1.105 -0.5767,0.0625 -1.4256,0.7335 -2.5464,2.0129l-3.7305 3.5259c-0.4994,0.4569 -1.0133,0.8147 -1.5418,1.0734 -0.5285,0.2585 -1.0233,0.413 -1.4847,0.463 -1.1152,0.1209 -2.1419,-0.221 -3.0805,-1.0255 -0.8278,-0.7158 -1.3023,-1.4868 -1.4235,-2.3127l-0.9023 -6.1451 4.0325 -1.4691zm-1.9391 17.0983l14.9663 -1.168 -0.489 -4.6264 4.2765 0.6944 1.1964 11.3171 -4.0609 1.3451 -0.4891 -4.6262 -14.9664 1.168 -0.4338 -4.104zm-1.1162 12.7482c1.2328,-0.8121 2.3835,-1.4439 3.4526,-1.8952 1.6885,-0.7072 3.4603,-1.1192 5.3158,-1.2361 3.6718,-0.231 6.654,0.3325 8.946,1.6908 2.7011,1.5995 4.2054,4.2009 4.5127,7.8044l0.2208 2.5904 -4.0875 1.284 -0.2633 -3.0887c-0.1302,-1.5276 -0.7531,-2.9074 -1.8685,-4.1393 -1.1153,-1.2321 -2.2723,-1.8103 -3.4704,-1.7348l0.3949 4.6329 4.2036 -0.2646 0.3503 4.1097 -14.3789 0.9051 -0.3505 -4.1097 6.001 -0.3777 -0.4397 -5.156c-0.831,0.0523 -1.808,0.3307 -2.9307,0.8354 -0.9739,0.4286 -1.9387,0.9652 -2.8939,1.6096l-2.7143 -3.4602zm3.5449 17.1368l15.0048 -0.7185 -0.3009 -4.6383 4.2456 0.8222 0.7361 11.3462 -4.113 1.2224 -0.3009 -4.638 -15.0048 0.7185 -0.2669 -4.1145zm0.3888 10.1131l19.2097 -0.3428 0.2373 9.813 -4.1602 1.0983 -0.1624 -6.7167 -3.0222 0.0539 0.1497 6.1924 -4.2097 -0.949 -0.125 -5.1687 -3.6037 0.0643 0.175 7.2411 -4.2392 -0.9734 -0.2493 -10.3124z"/>
   <path id="_199829888" class="fil2 str3" d="M24.203 110.621c1.4239,-1.259 2.7659,-2.2546 4.0262,-2.9869 1.9906,-1.149 4.1124,-1.8856 6.3658,-2.2099 4.459,-0.6417 8.1552,-0.0958 11.0879,1.6383 3.4559,2.0419 5.5505,5.6092 6.2837,10.7025l0.5269 3.6613 -4.8619 2.1728 -0.6282 -4.3652c-0.3109,-2.1594 -1.2082,-4.0664 -2.6919,-5.7213 -1.484,-1.6554 -2.9536,-2.378 -4.4087,-2.1684l0.9425 6.5482 5.1046 -0.7348 0.8361 5.8087 -17.462 2.5132 -0.8359 -5.8087 7.2876 -1.0489 -1.0489 -7.2874c-1.0091,0.1451 -2.1741,0.6242 -3.4945,1.4369 -1.1461,0.6923 -2.2702,1.5366 -3.3726,2.5337l-3.6567 -4.6841zm5.6401 18.8472l17.503 -2.2081 0.739 5.858 -5.8226 0.7346c0.7365,1.102 1.6569,2.145 2.7609,3.1291 1.3455,1.1926 2.371,1.7443 3.0769,1.6553 0.4234,-0.0534 0.7319,-0.3553 0.9255,-0.9054 0.1933,-0.5503 0.2188,-1.39 0.0764,-2.5193l-1.1975 -9.4925 5.264 0.8057 1.104 8.7516c0.3324,2.6348 0.1687,4.7467 -0.4913,6.3357 -0.7714,1.842 -2.1806,2.8921 -4.2272,3.1502l-0.1764 0.0223c-1.8115,0.2285 -3.6428,-0.1737 -5.4939,-1.2068 -1.5951,-0.8983 -3.1598,-2.2184 -4.6941,-3.9608 -1.2546,-1.4192 -2.4183,-3.065 -3.491,-4.9371l-5.1167 0.6455 -0.739 -5.858zm2.5899 20.7887l17.5391 -1.9025 0.6365 5.8701 -5.8345 0.633c0.7171,1.1146 1.6192,2.1735 2.7058,3.1767 1.3246,1.216 2.3403,1.7855 3.0475,1.7087 0.4244,-0.0459 0.738,-0.3425 0.9413,-0.8891 0.2028,-0.5469 0.2431,-1.3859 0.1202,-2.5174l-1.0316 -9.512 5.2491 0.8973 0.9512 8.7697c0.2865,2.6401 0.0859,4.7489 -0.6018,6.3261 -0.8034,1.8283 -2.2308,2.8535 -4.2815,3.076l-0.1767 0.0191c-1.8154,0.1969 -3.6392,-0.2372 -5.4722,-1.3025 -1.5791,-0.9258 -3.1206,-2.2733 -4.6242,-4.0422 -1.2297,-1.4407 -2.3644,-3.1067 -3.4042,-4.9971l-5.1272 0.5559 -0.6368 -5.8698z"/>
  </g>
 </g>
</svg>
